<svg version="1.1" xmlns="http://www.w3.org/2000/svg" viewBox="0 0 3850.871824189013 2519.828088182956" width="3850.871824189013" height="2519.828088182956" filter="invert(93%) hue-rotate(180deg)">
  <!-- svg-source:excalidraw -->
  
  <defs>
    <style class="style-fonts">
      @font-face {
        font-family: "Virgil";
        src: url("https://excalidraw.com/Virgil.woff2");
      }
      @font-face {
        font-family: "Cascadia";
        src: url("https://excalidraw.com/Cascadia.woff2");
      }
    </style>
  </defs>
  <rect x="0" y="0" width="3850.871824189013" height="2519.828088182956" fill="#ffffff"></rect><g stroke-linecap="round" transform="translate(316.1152267814905 259.56430827938266) rotate(0 295.1275705061985 127.57742214235464)"><path d="M32 0 M32 0 C152.24 0, 272.48 0, 558.26 0 M32 0 C163.71 0, 295.42 0, 558.26 0 M558.26 0 C579.59 0, 590.26 10.67, 590.26 32 M558.26 0 C579.59 0, 590.26 10.67, 590.26 32 M590.26 32 C590.26 92.64, 590.26 153.28, 590.26 223.15 M590.26 32 C590.26 101.26, 590.26 170.52, 590.26 223.15 M590.26 223.15 C590.26 244.49, 579.59 255.15, 558.26 255.15 M590.26 223.15 C590.26 244.49, 579.59 255.15, 558.26 255.15 M558.26 255.15 C386.72 255.15, 215.19 255.15, 32 255.15 M558.26 255.15 C408.79 255.15, 259.33 255.15, 32 255.15 M32 255.15 C10.67 255.15, 0 244.49, 0 223.15 M32 255.15 C10.67 255.15, 0 244.49, 0 223.15 M0 223.15 C0 157.45, 0 91.74, 0 32 M0 223.15 C0 154.45, 0 85.75, 0 32 M0 32 C0 10.67, 10.67 0, 32 0 M0 32 C0 10.67, 10.67 0, 32 0" stroke="#000000" stroke-width="4" fill="none"></path></g><g transform="translate(451.2027582251894 366.44173042173725) rotate(0 160.0400390625 20.700000000000045)"><text x="160.0400390625" y="0" font-family="Helvetica, Segoe UI Emoji" font-size="36px" fill="#000000" text-anchor="middle" style="white-space: pre;" direction="ltr" dominant-baseline="text-before-edge">USER ADDS FILES</text></g><g stroke-linecap="round" transform="translate(1475.319772565149 1637.1804953347792) rotate(0 262.22354390496685 112.05704105988025)"><path d="M32 0 M32 0 C151.08 0, 270.16 0, 492.45 0 M32 0 C127.42 0, 222.84 0, 492.45 0 M492.45 0 C513.78 0, 524.45 10.67, 524.45 32 M492.45 0 C513.78 0, 524.45 10.67, 524.45 32 M524.45 32 C524.45 84.05, 524.45 136.11, 524.45 192.11 M524.45 32 C524.45 78.22, 524.45 124.45, 524.45 192.11 M524.45 192.11 C524.45 213.45, 513.78 224.11, 492.45 224.11 M524.45 192.11 C524.45 213.45, 513.78 224.11, 492.45 224.11 M492.45 224.11 C333.39 224.11, 174.33 224.11, 32 224.11 M492.45 224.11 C346.87 224.11, 201.29 224.11, 32 224.11 M32 224.11 C10.67 224.11, 0 213.45, 0 192.11 M32 224.11 C10.67 224.11, 0 213.45, 0 192.11 M0 192.11 C0 136.34, 0 80.56, 0 32 M0 192.11 C0 155.27, 0 118.42, 0 32 M0 32 C0 10.67, 10.67 0, 32 0 M0 32 C0 10.67, 10.67 0, 32 0" stroke="#000000" stroke-width="4" fill="none"></path></g><g transform="translate(1503.5257383451153 1707.8375363946593) rotate(0 234.017578125 41.40000000000009)"><text x="234.017578125" y="0" font-family="Helvetica, Segoe UI Emoji" font-size="36px" fill="#000000" text-anchor="middle" style="white-space: pre;" direction="ltr" dominant-baseline="text-before-edge">OFFLINE AUDIO CONTEXT </text><text x="234.017578125" y="41.4" font-family="Helvetica, Segoe UI Emoji" font-size="36px" fill="#000000" text-anchor="middle" style="white-space: pre;" direction="ltr" dominant-baseline="text-before-edge">DECODE AUDIO DATA</text></g><g stroke-linecap="round" transform="translate(900.4209563832364 2012.6801358109365) rotate(0 336 127.5)"><path d="M32 0 M32 0 C225.99 0, 419.98 0, 640 0 M32 0 C244.84 0, 457.68 0, 640 0 M640 0 C661.33 0, 672 10.67, 672 32 M640 0 C661.33 0, 672 10.67, 672 32 M672 32 C672 76.6, 672 121.21, 672 223 M672 32 C672 77.78, 672 123.56, 672 223 M672 223 C672 244.33, 661.33 255, 640 255 M672 223 C672 244.33, 661.33 255, 640 255 M640 255 C505.54 255, 371.08 255, 32 255 M640 255 C511.58 255, 383.16 255, 32 255 M32 255 C10.67 255, 0 244.33, 0 223 M32 255 C10.67 255, 0 244.33, 0 223 M0 223 C0 172.17, 0 121.33, 0 32 M0 223 C0 176.82, 0 130.65, 0 32 M0 32 C0 10.67, 10.67 0, 32 0 M0 32 C0 10.67, 10.67 0, 32 0" stroke="#000000" stroke-width="4" fill="none"></path></g><g transform="translate(984.3858001332364 2119.4801358109366) rotate(0 252.03515625 20.700000000000045)"><text x="252.03515625" y="0" font-family="Helvetica, Segoe UI Emoji" font-size="36px" fill="#000000" text-anchor="middle" style="white-space: pre;" direction="ltr" dominant-baseline="text-before-edge">ONE SECOND CLIP WORKER</text></g><g stroke-linecap="round" transform="translate(2121.8894465440544 2057.1130996640495) rotate(0 310.8034869378557 120.84917421577575)"><path d="M32 0 M32 0 C146.44 0, 260.88 0, 589.61 0 M32 0 C196.61 0, 361.23 0, 589.61 0 M589.61 0 C610.94 0, 621.61 10.67, 621.61 32 M589.61 0 C610.94 0, 621.61 10.67, 621.61 32 M621.61 32 C621.61 76.34, 621.61 120.67, 621.61 209.7 M621.61 32 C621.61 101.13, 621.61 170.25, 621.61 209.7 M621.61 209.7 C621.61 231.03, 610.94 241.7, 589.61 241.7 M621.61 209.7 C621.61 231.03, 610.94 241.7, 589.61 241.7 M589.61 241.7 C407.68 241.7, 225.76 241.7, 32 241.7 M589.61 241.7 C464.44 241.7, 339.27 241.7, 32 241.7 M32 241.7 C10.67 241.7, 0 231.03, 0 209.7 M32 241.7 C10.67 241.7, 0 231.03, 0 209.7 M0 209.7 C0 161.53, 0 113.35, 0 32 M0 209.7 C0 160.68, 0 111.66, 0 32 M0 32 C0 10.67, 10.67 0, 32 0 M0 32 C0 10.67, 10.67 0, 32 0" stroke="#000000" stroke-width="4" fill="none"></path></g><g transform="translate(2274.6919569194097 2157.2622738798254) rotate(0 158.0009765625 20.700000000000045)"><text x="158.0009765625" y="0" font-family="Helvetica, Segoe UI Emoji" font-size="36px" fill="#000000" text-anchor="middle" style="white-space: pre;" direction="ltr" dominant-baseline="text-before-edge">DETECT WORKER</text></g><g stroke-linecap="round" transform="translate(2695.280908224556 1585.2094570379786) rotate(0 304.5176517191853 129.12945081850103)"><path d="M32 0 M32 0 C209.75 0, 387.49 0, 577.04 0 M32 0 C248.73 0, 465.46 0, 577.04 0 M577.04 0 C598.37 0, 609.04 10.67, 609.04 32 M577.04 0 C598.37 0, 609.04 10.67, 609.04 32 M609.04 32 C609.04 87.25, 609.04 142.5, 609.04 226.26 M609.04 32 C609.04 77.34, 609.04 122.68, 609.04 226.26 M609.04 226.26 C609.04 247.59, 598.37 258.26, 577.04 258.26 M609.04 226.26 C609.04 247.59, 598.37 258.26, 577.04 258.26 M577.04 258.26 C374.6 258.26, 172.16 258.26, 32 258.26 M577.04 258.26 C368.55 258.26, 160.06 258.26, 32 258.26 M32 258.26 C10.67 258.26, 0 247.59, 0 226.26 M32 258.26 C10.67 258.26, 0 247.59, 0 226.26 M0 226.26 C0 153.08, 0 79.89, 0 32 M0 226.26 C0 176.58, 0 126.9, 0 32 M0 32 C0 10.67, 10.67 0, 32 0 M0 32 C0 10.67, 10.67 0, 32 0" stroke="#000000" stroke-width="4" fill="none"></path></g><g transform="translate(2785.7497318187416 1693.6389078564798) rotate(0 214.048828125 20.700000000000045)"><text x="214.048828125" y="0" font-family="Helvetica, Segoe UI Emoji" font-size="36px" fill="#000000" text-anchor="middle" style="white-space: pre;" direction="ltr" dominant-baseline="text-before-edge">SAMPLE SPLIT WORKER</text></g><g stroke-linecap="round" transform="translate(356.3893123797361 1012.108084021228) rotate(0 183.96984339184291 98.98168141401356)"><path d="M32 0 M32 0 C125.85 0, 219.71 0, 335.94 0 M32 0 C124.33 0, 216.66 0, 335.94 0 M335.94 0 C357.27 0, 367.94 10.67, 367.94 32 M335.94 0 C357.27 0, 367.94 10.67, 367.94 32 M367.94 32 C367.94 81.1, 367.94 130.2, 367.94 165.96 M367.94 32 C367.94 62.44, 367.94 92.87, 367.94 165.96 M367.94 165.96 C367.94 187.3, 357.27 197.96, 335.94 197.96 M367.94 165.96 C367.94 187.3, 357.27 197.96, 335.94 197.96 M335.94 197.96 C247.89 197.96, 159.83 197.96, 32 197.96 M335.94 197.96 C273.4 197.96, 210.87 197.96, 32 197.96 M32 197.96 C10.67 197.96, 0 187.3, 0 165.96 M32 197.96 C10.67 197.96, 0 187.3, 0 165.96 M0 165.96 C0 125.77, 0 85.58, 0 32 M0 165.96 C0 125.85, 0 85.74, 0 32 M0 32 C0 10.67, 10.67 0, 32 0 M0 32 C0 10.67, 10.67 0, 32 0" stroke="#000000" stroke-width="4" fill="none"></path></g><g transform="translate(438.335718271579 1090.3897654352418) rotate(0 102.0234375 20.700000000000045)"><text x="102.0234375" y="0" font-family="Helvetica, Segoe UI Emoji" font-size="36px" fill="#000000" text-anchor="middle" style="white-space: pre;" direction="ltr" dominant-baseline="text-before-edge">FILENAMES</text></g><g mask="url(#mask-cgB12x4psIznqnUBtDXYB)" stroke-linecap="round"><g transform="translate(671.7687821887339 1224.6873777961573) rotate(0 -71.75649958385566 197.56398836780068)"><path d="M0 0 C-23.92 65.85, -119.59 329.27, -143.51 395.13 M0 0 C-23.92 65.85, -119.59 329.27, -143.51 395.13" stroke="#000000" stroke-width="4" fill="none"></path></g><g transform="translate(671.7687821887339 1224.6873777961573) rotate(0 -71.75649958385566 197.56398836780068)"><path d="M-143.53 365.13 C-143.53 372.37, -143.52 379.62, -143.51 395.13 M-143.53 365.13 C-143.53 375.47, -143.52 385.8, -143.51 395.13" stroke="#000000" stroke-width="4" fill="none"></path></g><g transform="translate(671.7687821887339 1224.6873777961573) rotate(0 -71.75649958385566 197.56398836780068)"><path d="M-124.24 372.13 C-128.9 377.69, -133.55 383.24, -143.51 395.13 M-124.24 372.13 C-130.88 380.06, -137.52 387.98, -143.51 395.13" stroke="#000000" stroke-width="4" fill="none"></path></g></g><mask id="mask-cgB12x4psIznqnUBtDXYB"><rect x="0" y="0" fill="#fff" width="915.2817813564452" height="1719.8153545317587"></rect><rect x="506.98884510487824" y="1401.551366163958" fill="#000" width="186.046875" height="41.4" opacity="1"></rect></mask><g transform="translate(506.98884510487824 1401.551366163958) rotate(0 93.0234375 20.700000000000045)"><text x="93.0234375" y="0" font-family="Helvetica, Segoe UI Emoji" font-size="36px" fill="#000000" text-anchor="middle" style="white-space: pre;" direction="ltr" dominant-baseline="text-before-edge">EACH FILE</text></g><g mask="url(#mask-LDep_cWfD7Xb0lSde_Mzw)" stroke-linecap="round"><g transform="translate(2416.806805448634 2049.8658154820887) rotate(0 78.35052351168997 -381.3598208017735)"><path d="M0 0 C26.12 -127.12, 130.58 -635.6, 156.7 -762.72 M0 0 C26.12 -127.12, 130.58 -635.6, 156.7 -762.72" stroke="#000000" stroke-width="4" fill="none"></path></g><g transform="translate(2416.806805448634 2049.8658154820887) rotate(0 78.35052351168997 -381.3598208017735)"><path d="M161.08 -733.04 C159.71 -742.32, 158.34 -751.6, 156.7 -762.72 M161.08 -733.04 C159.85 -741.37, 158.62 -749.7, 156.7 -762.72" stroke="#000000" stroke-width="4" fill="none"></path></g><g transform="translate(2416.806805448634 2049.8658154820887) rotate(0 78.35052351168997 -381.3598208017735)"><path d="M140.98 -737.17 C145.89 -745.16, 150.81 -753.15, 156.7 -762.72 M140.98 -737.17 C145.39 -744.34, 149.8 -751.51, 156.7 -762.72" stroke="#000000" stroke-width="4" fill="none"></path></g></g><mask id="mask-LDep_cWfD7Xb0lSde_Mzw"><rect x="0" y="0" fill="#fff" width="2673.507852472014" height="2912.5854570856354"></rect><rect x="2391.639750835324" y="1565.005994680315" fill="#000" width="207.03515625" height="207" opacity="1"></rect></mask><g transform="translate(2391.639750835324 1565.0059946803153) rotate(0 103.517578125 103.50000000000011)"><text x="103.517578125" y="0" font-family="Helvetica, Segoe UI Emoji" font-size="36px" fill="#000000" text-anchor="middle" style="white-space: pre;" direction="ltr" dominant-baseline="text-before-edge">ONSETS + </text><text x="103.517578125" y="41.4" font-family="Helvetica, Segoe UI Emoji" font-size="36px" fill="#000000" text-anchor="middle" style="white-space: pre;" direction="ltr" dominant-baseline="text-before-edge">OFFSETS + </text><text x="103.517578125" y="82.8" font-family="Helvetica, Segoe UI Emoji" font-size="36px" fill="#000000" text-anchor="middle" style="white-space: pre;" direction="ltr" dominant-baseline="text-before-edge">PEAK </text><text x="103.517578125" y="124.19999999999999" font-family="Helvetica, Segoe UI Emoji" font-size="36px" fill="#000000" text-anchor="middle" style="white-space: pre;" direction="ltr" dominant-baseline="text-before-edge">VOLUMES, </text><text x="103.517578125" y="165.6" font-family="Helvetica, Segoe UI Emoji" font-size="36px" fill="#000000" text-anchor="middle" style="white-space: pre;" direction="ltr" dominant-baseline="text-before-edge">CLIP IDX</text></g><g stroke-linecap="round" transform="translate(2328.2920561963847 1121.9909986231555) rotate(0 234.99999999999955 76.5)"><path d="M32 0 M32 0 C161.18 0, 290.35 0, 438 0 M32 0 C133.66 0, 235.32 0, 438 0 M438 0 C459.33 0, 470 10.67, 470 32 M438 0 C459.33 0, 470 10.67, 470 32 M470 32 C470 53.68, 470 75.37, 470 121 M470 32 C470 55.79, 470 79.59, 470 121 M470 121 C470 142.33, 459.33 153, 438 153 M470 121 C470 142.33, 459.33 153, 438 153 M438 153 C281.19 153, 124.38 153, 32 153 M438 153 C337.44 153, 236.89 153, 32 153 M32 153 C10.67 153, 0 142.33, 0 121 M32 153 C10.67 153, 0 142.33, 0 121 M0 121 C0 98.68, 0 76.36, 0 32 M0 121 C0 90.46, 0 59.91, 0 32 M0 32 C0 10.67, 10.67 0, 32 0 M0 32 C0 10.67, 10.67 0, 32 0" stroke="#000000" stroke-width="4" fill="none"></path></g><g transform="translate(2394.2783843213847 1177.7909986231557) rotate(0 169.013671875 20.700000000000045)"><text x="169.013671875" y="0" font-family="Helvetica, Segoe UI Emoji" font-size="36px" fill="#000000" text-anchor="middle" style="white-space: pre;" direction="ltr" dominant-baseline="text-before-edge">SAMPLE WINDOWS</text></g><g stroke-linecap="round"><g transform="translate(2619.2425117305193 1277.954359363861) rotate(0 121.19237519599665 148.1640157198567)"><path d="M0 0 C40.4 49.39, 201.99 246.94, 242.38 296.33 M0 0 C40.4 49.39, 201.99 246.94, 242.38 296.33" stroke="#000000" stroke-width="4" fill="none"></path></g><g transform="translate(2619.2425117305193 1277.954359363861) rotate(0 121.19237519599665 148.1640157198567)"><path d="M216.59 281 C224.82 285.89, 233.05 290.78, 242.38 296.33 M216.59 281 C225.66 286.39, 234.73 291.78, 242.38 296.33" stroke="#000000" stroke-width="4" fill="none"></path></g><g transform="translate(2619.2425117305193 1277.954359363861) rotate(0 121.19237519599665 148.1640157198567)"><path d="M232.48 268.01 C235.64 277.05, 238.8 286.08, 242.38 296.33 M232.48 268.01 C235.96 277.97, 239.45 287.93, 242.38 296.33" stroke="#000000" stroke-width="4" fill="none"></path></g></g><mask></mask><g stroke-linecap="round" transform="translate(246.0981157139886 10) rotate(0 1700.5187151084147 751.3374214545606)"><path d="M32 0 M32 0 C1020.7 0, 2009.41 0, 3369.04 0 M32 0 C926.41 0, 1820.83 0, 3369.04 0 M3369.04 0 C3390.37 0, 3401.04 10.67, 3401.04 32 M3369.04 0 C3390.37 0, 3401.04 10.67, 3401.04 32 M3401.04 32 C3401.04 552.31, 3401.04 1072.62, 3401.04 1470.67 M3401.04 32 C3401.04 523.03, 3401.04 1014.06, 3401.04 1470.67 M3401.04 1470.67 C3401.04 1492.01, 3390.37 1502.67, 3369.04 1502.67 M3401.04 1470.67 C3401.04 1492.01, 3390.37 1502.67, 3369.04 1502.67 M3369.04 1502.67 C2170.93 1502.67, 972.81 1502.67, 32 1502.67 M3369.04 1502.67 C2687.65 1502.67, 2006.27 1502.67, 32 1502.67 M32 1502.67 C10.67 1502.67, 0 1492.01, 0 1470.67 M32 1502.67 C10.67 1502.67, 0 1492.01, 0 1470.67 M0 1470.67 C0 956.24, 0 441.8, 0 32 M0 1470.67 C0 1126.25, 0 781.82, 0 32 M0 32 C0 10.67, 10.67 0, 32 0 M0 32 C0 10.67, 10.67 0, 32 0" stroke="#000000" stroke-width="4" fill="none"></path></g><g stroke-linecap="round" transform="translate(2878.325169245709 759.1144575705098) rotate(0 346.7728520431756 109.66953254788837)"><path d="M32 0 M32 0 C161.42 0, 290.85 0, 661.55 0 M32 0 C215.12 0, 398.23 0, 661.55 0 M661.55 0 C682.88 0, 693.55 10.67, 693.55 32 M661.55 0 C682.88 0, 693.55 10.67, 693.55 32 M693.55 32 C693.55 93.81, 693.55 155.62, 693.55 187.34 M693.55 32 C693.55 85.21, 693.55 138.41, 693.55 187.34 M693.55 187.34 C693.55 208.67, 682.88 219.34, 661.55 219.34 M693.55 187.34 C693.55 208.67, 682.88 219.34, 661.55 219.34 M661.55 219.34 C508.44 219.34, 355.33 219.34, 32 219.34 M661.55 219.34 C522.45 219.34, 383.35 219.34, 32 219.34 M32 219.34 C10.67 219.34, 0 208.67, 0 187.34 M32 219.34 C10.67 219.34, 0 208.67, 0 187.34 M0 187.34 C0 145.19, 0 103.04, 0 32 M0 187.34 C0 149.01, 0 110.69, 0 32 M0 32 C0 10.67, 10.67 0, 32 0 M0 32 C0 10.67, 10.67 0, 32 0" stroke="#000000" stroke-width="4" fill="none"></path></g><g transform="translate(3140.06384160139 848.0839901183981) rotate(0 85.0341796875 20.700000000000045)"><text x="85.0341796875" y="0" font-family="Helvetica, Segoe UI Emoji" font-size="36px" fill="#000000" text-anchor="middle" style="white-space: pre;" direction="ltr" dominant-baseline="text-before-edge">SAMPLES</text></g><g stroke-linecap="round"><g transform="translate(3074.0899848829395 1571.9186819981146) rotate(0 66.36013688306411 -283.25423294343364)"><path d="M0 0 C22.12 -94.42, 110.6 -472.09, 132.72 -566.51 M0 0 C22.12 -94.42, 110.6 -472.09, 132.72 -566.51" stroke="#000000" stroke-width="4" fill="none"></path></g><g transform="translate(3074.0899848829395 1571.9186819981146) rotate(0 66.36013688306411 -283.25423294343364)"><path d="M136.28 -536.72 C135.05 -547, 133.82 -557.28, 132.72 -566.51 M136.28 -536.72 C135.07 -546.85, 133.86 -556.97, 132.72 -566.51" stroke="#000000" stroke-width="4" fill="none"></path></g><g transform="translate(3074.0899848829395 1571.9186819981146) rotate(0 66.36013688306411 -283.25423294343364)"><path d="M116.3 -541.4 C121.97 -550.07, 127.63 -558.73, 132.72 -566.51 M116.3 -541.4 C121.88 -549.94, 127.46 -558.47, 132.72 -566.51" stroke="#000000" stroke-width="4" fill="none"></path></g></g><mask></mask><g stroke-linecap="round"><g transform="translate(589.7680904541994 517.0696179684801) rotate(0 -21.583359904464942 245.88778436211692)"><path d="M0 0 C-7.19 81.96, -35.97 409.81, -43.17 491.78 M0 0 C-7.19 81.96, -35.97 409.81, -43.17 491.78" stroke="#000000" stroke-width="4" fill="none"></path></g><g transform="translate(589.7680904541994 517.0696179684801) rotate(0 -21.583359904464942 245.88778436211692)"><path d="M-50.92 462.8 C-48.64 471.34, -46.35 479.88, -43.17 491.78 M-50.92 462.8 C-48.03 473.61, -45.14 484.42, -43.17 491.78" stroke="#000000" stroke-width="4" fill="none"></path></g><g transform="translate(589.7680904541994 517.0696179684801) rotate(0 -21.583359904464942 245.88778436211692)"><path d="M-30.48 464.59 C-34.22 472.6, -37.96 480.62, -43.17 491.78 M-30.48 464.59 C-35.21 474.73, -39.95 484.88, -43.17 491.78" stroke="#000000" stroke-width="4" fill="none"></path></g></g><mask></mask><g mask="url(#mask-YJNIaaJAMKUbZ5wHn2bAO)" stroke-linecap="round"><g transform="translate(3248.9166644111756 741.4996905734533) rotate(0 -35.98838418498053 -140.53251906429887)"><path d="M0 0 C-12 -46.84, -59.98 -234.22, -71.98 -281.07 M0 0 C-12 -46.84, -59.98 -234.22, -71.98 -281.07" stroke="#000000" stroke-width="4" fill="none"></path></g><g transform="translate(3248.9166644111756 741.4996905734533) rotate(0 -35.98838418498053 -140.53251906429887)"><path d="M-55.04 -256.3 C-60.85 -264.79, -66.65 -273.28, -71.98 -281.07 M-55.04 -256.3 C-60.14 -263.76, -65.24 -271.21, -71.98 -281.07" stroke="#000000" stroke-width="4" fill="none"></path></g><g transform="translate(3248.9166644111756 741.4996905734533) rotate(0 -35.98838418498053 -140.53251906429887)"><path d="M-74.92 -251.21 C-73.91 -261.45, -72.9 -271.68, -71.98 -281.07 M-74.92 -251.21 C-74.04 -260.2, -73.15 -269.19, -71.98 -281.07" stroke="#000000" stroke-width="4" fill="none"></path></g></g><mask id="mask-YJNIaaJAMKUbZ5wHn2bAO"><rect x="0" y="0" fill="#fff" width="3420.8934327811367" height="1122.564728702051"></rect><rect x="3111.906795851195" y="559.5671715091544" fill="#000" width="202.04296875" height="82.8" opacity="1"></rect></mask><g transform="translate(3111.906795851195 559.5671715091544) rotate(0 101.021484375 41.40000000000009)"><text x="101.021484375" y="0" font-family="Helvetica, Segoe UI Emoji" font-size="36px" fill="#000000" text-anchor="middle" style="white-space: pre;" direction="ltr" dominant-baseline="text-before-edge">POPULATE </text><text x="101.021484375" y="41.4" font-family="Helvetica, Segoe UI Emoji" font-size="36px" fill="#000000" text-anchor="middle" style="white-space: pre;" direction="ltr" dominant-baseline="text-before-edge">INTERFACE</text></g><g stroke-linecap="round" transform="translate(2953.458078200003 237.09989016998134) rotate(0 312.10993200454595 102.46895733930046)"><path d="M32 0 M32 0 C228.55 0, 425.1 0, 592.22 0 M32 0 C240.89 0, 449.77 0, 592.22 0 M592.22 0 C613.55 0, 624.22 10.67, 624.22 32 M592.22 0 C613.55 0, 624.22 10.67, 624.22 32 M624.22 32 C624.22 66.41, 624.22 100.83, 624.22 172.94 M624.22 32 C624.22 77.64, 624.22 123.28, 624.22 172.94 M624.22 172.94 C624.22 194.27, 613.55 204.94, 592.22 204.94 M624.22 172.94 C624.22 194.27, 613.55 204.94, 592.22 204.94 M592.22 204.94 C478.51 204.94, 364.79 204.94, 32 204.94 M592.22 204.94 C453.15 204.94, 314.09 204.94, 32 204.94 M32 204.94 C10.67 204.94, 0 194.27, 0 172.94 M32 204.94 C10.67 204.94, 0 194.27, 0 172.94 M0 172.94 C0 135.54, 0 98.14, 0 32 M0 172.94 C0 126.82, 0 80.71, 0 32 M0 32 C0 10.67, 10.67 0, 32 0 M0 32 C0 10.67, 10.67 0, 32 0" stroke="#000000" stroke-width="4" fill="none"></path></g><g transform="translate(3094.532853954548 318.8688475092813) rotate(0 171.03515625 20.700000000000045)"><text x="171.03515625" y="0" font-family="Helvetica, Segoe UI Emoji" font-size="36px" fill="#000000" text-anchor="middle" style="white-space: pre;" direction="ltr" dominant-baseline="text-before-edge">SAMPLE BROWSER</text></g><g stroke-linecap="round"><g transform="translate(1415.5532193678955 1985.6283780917158) rotate(0 -57.285180993177164 -415.7551006746488)"><path d="M0 0 C-27.3 -108.55, -143.43 -514.45, -163.79 -651.28 C-184.15 -788.11, -158.86 -793.99, -122.15 -821 C-85.44 -848, 26.7 -814.6, 56.47 -813.32 M0 0 C-27.3 -108.55, -143.43 -514.45, -163.79 -651.28 C-184.15 -788.11, -158.86 -793.99, -122.15 -821 C-85.44 -848, 26.7 -814.6, 56.47 -813.32" stroke="#000000" stroke-width="4" fill="none"></path></g><g transform="translate(1415.5532193678955 1985.6283780917158) rotate(0 -57.285180993177164 -415.7551006746488)"><path d="M26.99 -807.75 C35.25 -809.31, 43.52 -810.87, 56.47 -813.32 M26.99 -807.75 C36.02 -809.45, 45.05 -811.16, 56.47 -813.32" stroke="#000000" stroke-width="4" fill="none"></path></g><g transform="translate(1415.5532193678955 1985.6283780917158) rotate(0 -57.285180993177164 -415.7551006746488)"><path d="M30.3 -828 C37.64 -823.88, 44.98 -819.76, 56.47 -813.32 M30.3 -828 C38.32 -823.5, 46.33 -819, 56.47 -813.32" stroke="#000000" stroke-width="4" fill="none"></path></g></g><mask></mask><g transform="translate(1480.408635480604 1166.488131330922) rotate(0 248.7392578125 20.700000000000045)"><text x="0" y="0" font-family="Helvetica, Segoe UI Emoji" font-size="36px" fill="#000000" text-anchor="start" style="white-space: pre;" direction="ltr" dominant-baseline="text-before-edge">ONE SECOND CLIP, CLIP IDX</text></g><g stroke-linecap="round"><g transform="translate(1700.1887406485612 1210.042803801176) rotate(0 20.006487729453056 203.53811874216444)"><path d="M0 0 C6.67 67.85, 33.34 339.23, 40.01 407.08 M0 0 C6.67 67.85, 33.34 339.23, 40.01 407.08" stroke="#000000" stroke-width="4" fill="none"></path></g><g transform="translate(1700.1887406485612 1210.042803801176) rotate(0 20.006487729453056 203.53811874216444)"><path d="M27.04 380.02 C30.17 386.54, 33.29 393.06, 40.01 407.08 M27.04 380.02 C30.7 387.66, 34.36 395.29, 40.01 407.08" stroke="#000000" stroke-width="4" fill="none"></path></g><g transform="translate(1700.1887406485612 1210.042803801176) rotate(0 20.006487729453056 203.53811874216444)"><path d="M47.47 378.02 C45.67 385.02, 43.87 392.02, 40.01 407.08 M47.47 378.02 C45.36 386.22, 43.26 394.42, 40.01 407.08" stroke="#000000" stroke-width="4" fill="none"></path></g></g><mask></mask><g stroke-linecap="round" transform="translate(378.7592273162318 1631.852930885214) rotate(0 291.2244364701519 140.89012499734918)"><path d="M32 0 M32 0 C175.11 0, 318.23 0, 550.45 0 M32 0 C234.83 0, 437.65 0, 550.45 0 M550.45 0 C571.78 0, 582.45 10.67, 582.45 32 M550.45 0 C571.78 0, 582.45 10.67, 582.45 32 M582.45 32 C582.45 93.34, 582.45 154.69, 582.45 249.78 M582.45 32 C582.45 107.65, 582.45 183.3, 582.45 249.78 M582.45 249.78 C582.45 271.11, 571.78 281.78, 550.45 281.78 M582.45 249.78 C582.45 271.11, 571.78 281.78, 550.45 281.78 M550.45 281.78 C406.86 281.78, 263.26 281.78, 32 281.78 M550.45 281.78 C363 281.78, 175.54 281.78, 32 281.78 M32 281.78 C10.67 281.78, 0 271.11, 0 249.78 M32 281.78 C10.67 281.78, 0 271.11, 0 249.78 M0 249.78 C0 180.02, 0 110.26, 0 32 M0 249.78 C0 173.75, 0 97.71, 0 32 M0 32 C0 10.67, 10.67 0, 32 0 M0 32 C0 10.67, 10.67 0, 32 0" stroke="#000000" stroke-width="4" fill="none"></path></g><g transform="translate(508.96803878638366 1752.0430558825633) rotate(0 161.015625 20.700000000000045)"><text x="161.015625" y="0" font-family="Helvetica, Segoe UI Emoji" font-size="36px" fill="#000000" text-anchor="middle" style="white-space: pre;" direction="ltr" dominant-baseline="text-before-edge">READER WORKER</text></g><g stroke-linecap="round"><g transform="translate(794.3971289987621 1620.7676707535206) rotate(0 41.35149493089193 -187.03585473245494)"><path d="M0 0 C13.78 -62.35, 68.92 -311.73, 82.7 -374.07 M0 0 C13.78 -62.35, 68.92 -311.73, 82.7 -374.07" stroke="#000000" stroke-width="4" fill="none"></path></g><g transform="translate(794.3971289987621 1620.7676707535206) rotate(0 41.35149493089193 -187.03585473245494)"><path d="M86.64 -344.33 C85.59 -352.27, 84.54 -360.22, 82.7 -374.07 M86.64 -344.33 C85.55 -352.55, 84.46 -360.77, 82.7 -374.07" stroke="#000000" stroke-width="4" fill="none"></path></g><g transform="translate(794.3971289987621 1620.7676707535206) rotate(0 41.35149493089193 -187.03585473245494)"><path d="M66.6 -348.76 C70.9 -355.52, 75.2 -362.28, 82.7 -374.07 M66.6 -348.76 C71.05 -355.75, 75.5 -362.75, 82.7 -374.07" stroke="#000000" stroke-width="4" fill="none"></path></g></g><mask></mask><g transform="translate(275.90078146036194 48.012845615737206) rotate(0 454.5738220214844 60.30791577030209)"><text x="0" y="0" font-family="Helvetica, Segoe UI Emoji" font-size="104.88333177443852px" fill="#000000" text-anchor="start" style="white-space: pre;" direction="ltr" dominant-baseline="text-before-edge">USER INTERFACE</text></g><g transform="translate(2804.2543913868158 45.58690593013989) rotate(0 406.89605712890625 57.29976977373576)"><text x="0" y="0" font-family="Helvetica, Segoe UI Emoji" font-size="99.65177351954051px" fill="#000000" text-anchor="start" style="white-space: pre;" direction="ltr" dominant-baseline="text-before-edge">WINDOW SCOPE</text></g><g transform="translate(3262.4636303020015 2073.5359678886066) rotate(0 258.4671936035156 171.8993093212074)"><text x="0" y="0" font-family="Helvetica, Segoe UI Emoji" font-size="99.65177351954051px" fill="#000000" text-anchor="start" style="white-space: pre;" direction="ltr" dominant-baseline="text-before-edge">SEPARATE</text><text x="0" y="114.59953954747158" font-family="Helvetica, Segoe UI Emoji" font-size="99.65177351954051px" fill="#000000" text-anchor="start" style="white-space: pre;" direction="ltr" dominant-baseline="text-before-edge">WORKER</text><text x="0" y="229.19907909494316" font-family="Helvetica, Segoe UI Emoji" font-size="99.65177351954051px" fill="#000000" text-anchor="start" style="white-space: pre;" direction="ltr" dominant-baseline="text-before-edge">THREADS</text></g><g stroke-linecap="round" transform="translate(10 675.4955170909448) rotate(0 1915.4359120945064 917.1662855460056)"><path d="M32 0 M32 0 C1451.37 0, 2870.75 0, 3798.87 0 M32 0 C943.78 0, 1855.56 0, 3798.87 0 M3798.87 0 C3820.21 0, 3830.87 10.67, 3830.87 32 M3798.87 0 C3820.21 0, 3830.87 10.67, 3830.87 32 M3830.87 32 C3830.87 472.87, 3830.87 913.74, 3830.87 1802.33 M3830.87 32 C3830.87 518.62, 3830.87 1005.24, 3830.87 1802.33 M3830.87 1802.33 C3830.87 1823.67, 3820.21 1834.33, 3798.87 1834.33 M3830.87 1802.33 C3830.87 1823.67, 3820.21 1834.33, 3798.87 1834.33 M3798.87 1834.33 C2584.75 1834.33, 1370.63 1834.33, 32 1834.33 M3798.87 1834.33 C2760.4 1834.33, 1721.93 1834.33, 32 1834.33 M32 1834.33 C10.67 1834.33, 0 1823.67, 0 1802.33 M32 1834.33 C10.67 1834.33, 0 1823.67, 0 1802.33 M0 1802.33 C0 1171.69, 0 541.06, 0 32 M0 1802.33 C0 1303.48, 0 804.62, 0 32 M0 32 C0 10.67, 10.67 0, 32 0 M0 32 C0 10.67, 10.67 0, 32 0" stroke="#000000" stroke-width="4" fill="none"></path></g><g transform="translate(882.424863751603 760.2231381796264) rotate(0 457.1854248046875 37.39976769371856)"><text x="0" y="0" font-family="Helvetica, Segoe UI Emoji" font-size="65.04307424994549px" fill="#000000" text-anchor="start" style="white-space: pre;" direction="ltr" dominant-baseline="text-before-edge">SAMPLE SPLITTING MODULE</text></g><g stroke-linecap="round" transform="translate(855.3010653946558 1070.0276383409519) rotate(0 165.06777377887738 78.37682670329013)"><path d="M32 0 M32 0 C138.79 1.22, 245.16 -0.98, 298.14 0 M32 0 C100.04 0.57, 168.48 0.52, 298.14 0 M298.14 0 C320.33 -0.21, 332.1 10.51, 330.14 32 M298.14 0 C318.15 0.55, 331.89 10.75, 330.14 32 M330.14 32 C331.53 60.5, 329.53 90.96, 330.14 124.75 M330.14 32 C331.21 68.52, 329.76 103.79, 330.14 124.75 M330.14 124.75 C330.64 144.41, 319.7 158.51, 298.14 156.75 M330.14 124.75 C331.47 145.45, 317.38 157.54, 298.14 156.75 M298.14 156.75 C228.62 155.29, 160.27 156.99, 32 156.75 M298.14 156.75 C230.41 156.91, 163.39 158.17, 32 156.75 M32 156.75 C9.61 155.66, -1.1 146.88, 0 124.75 M32 156.75 C8.9 155.53, -1.3 146.08, 0 124.75 M0 124.75 C0.25 100.02, -0.71 79.32, 0 32 M0 124.75 C0.32 88.02, -0.51 51.75, 0 32 M0 32 C2 10.96, 11.46 0.48, 32 0 M0 32 C-1.09 9.19, 12.8 1.77, 32 0" stroke="#000000" stroke-width="4" fill="none"></path></g><g transform="translate(970.3502844860332 1127.7044650442422) rotate(0 50.0185546875 20.700000000000045)"><text x="50.0185546875" y="0" font-family="Helvetica, Segoe UI Emoji" font-size="36px" fill="#000000" text-anchor="middle" style="white-space: pre;" direction="ltr" dominant-baseline="text-before-edge">FILES</text></g><g mask="url(#mask-tc6nk0IZ3a1OmUYWY57_P)" stroke-linecap="round"><g transform="translate(1046.2520261258587 1245.1232016968374) rotate(0 69.67391077095817 378.89076948841875)"><path d="M-0.5 1.12 C22.95 127.11, 116.33 630.19, 139.85 756.07 M1.44 0.66 C24.79 126.76, 115.67 630.99, 138.78 757.12" stroke="#000000" stroke-width="4" fill="none"></path></g><g transform="translate(1046.2520261258587 1245.1232016968374) rotate(0 69.67391077095817 378.89076948841875)"><path d="M125.51 730.85 C125.61 738.12, 129.67 743.77, 139.53 756.69 M124.23 731.29 C126.75 736.26, 129.3 741.48, 138.51 756.98" stroke="#000000" stroke-width="4" fill="none"></path></g><g transform="translate(1046.2520261258587 1245.1232016968374) rotate(0 69.67391077095817 378.89076948841875)"><path d="M145.7 727.18 C141.18 735.21, 140.62 741.69, 139.53 756.69 M144.42 727.62 C142.69 733.49, 140.97 739.49, 138.51 756.98" stroke="#000000" stroke-width="4" fill="none"></path></g></g><mask id="mask-tc6nk0IZ3a1OmUYWY57_P"><rect x="0" y="0" fill="#fff" width="1286.3206739061688" height="2102.113033464941"></rect><rect x="1044.2863500160138" y="1602.9181175808894" fill="#000" width="144" height="41.4" opacity="1"></rect></mask><g transform="translate(1044.2863500160138 1602.9181175808894) rotate(0 71.63958688080311 21.095853604366766)"><text x="72" y="0" font-family="Helvetica, Segoe UI Emoji" font-size="36px" fill="#000000" text-anchor="middle" style="white-space: pre;" direction="ltr" dominant-baseline="text-before-edge">BUFFER</text></g><g mask="url(#mask-Z4mdwtpRFaL-3d5-SyjjN)" stroke-linecap="round"><g transform="translate(1868.889321155798 1614.8049616709563) rotate(0 207.73890625651484 73.21089534436942)"><path d="M0.79 0.55 C13.32 -30.55, 36.69 -139.19, 75.93 -187.09 C115.16 -235, 188 -288.57, 236.19 -286.91 C284.39 -285.25, 335.18 -297.19, 365.1 -177.15 C395.03 -57.1, 407.54 331.49, 415.74 433.37 M-0.26 -0.21 C12.02 -31.11, 35.47 -138.19, 74.75 -185.8 C114.02 -233.41, 186.9 -286.94, 235.39 -285.87 C283.88 -284.8, 335.86 -299.25, 365.71 -179.39 C395.55 -59.53, 406.23 331.22, 414.47 433.29" stroke="#000000" stroke-width="4" fill="none"></path></g><g transform="translate(1868.889321155798 1614.8049616709563) rotate(0 207.73890625651484 73.21089534436942)"><path d="M403.59 404.98 C406.05 415.43, 410.15 426.59, 415.48 433.94 M401.93 406.24 C405.6 412.03, 407.31 419.15, 413.61 433.23" stroke="#000000" stroke-width="4" fill="none"></path></g><g transform="translate(1868.889321155798 1614.8049616709563) rotate(0 207.73890625651484 73.21089534436942)"><path d="M424.08 403.85 C419.17 414.84, 415.91 426.41, 415.48 433.94 M422.42 405.11 C421.45 411.14, 418.53 418.51, 413.61 433.23" stroke="#000000" stroke-width="4" fill="none"></path></g></g><mask id="mask-Z4mdwtpRFaL-3d5-SyjjN"><rect x="0" y="0" fill="#fff" width="2384.237540705957" height="2435.4311095457274"></rect><rect x="1966.141880548993" y="1266.3338891873113" fill="#000" width="278.015625" height="124.19999999999999" opacity="1"></rect></mask><g transform="translate(1966.141880548992 1266.3338891873113) rotate(0 110.4863468633207 421.6819678280144)"><text x="139.0078125" y="0" font-family="Helvetica, Segoe UI Emoji" font-size="36px" fill="#000000" text-anchor="middle" style="white-space: pre;" direction="ltr" dominant-baseline="text-before-edge">ONE SECOND </text><text x="139.0078125" y="41.4" font-family="Helvetica, Segoe UI Emoji" font-size="36px" fill="#000000" text-anchor="middle" style="white-space: pre;" direction="ltr" dominant-baseline="text-before-edge">AUDIO BUFFER </text><text x="139.0078125" y="82.8" font-family="Helvetica, Segoe UI Emoji" font-size="36px" fill="#000000" text-anchor="middle" style="white-space: pre;" direction="ltr" dominant-baseline="text-before-edge">CLIP, CLIP IDX</text></g></svg>